<svg width="192" height="47" viewBox="0 0 192 47" fill="none" xmlns="http://www.w3.org/2000/svg">
<rect x="186" y="7" width="180" height="1" transform="rotate(-180 186 7)" fill="url(#paint0_linear_108_33)"/>
<rect x="6" y="41" width="34" height="1" transform="rotate(-90 6 41)" fill="url(#paint1_linear_108_33)"/>
<rect x="186" y="6" width="34" height="1" transform="rotate(90 186 6)" fill="url(#paint2_linear_108_33)"/>
<rect x="6" y="40" width="180" height="1" fill="url(#paint3_linear_108_33)"/>
<g filter="url(#filter0_f_108_33)">
<rect x="6" y="37" width="1" height="4" fill="white"/>
<rect x="5" y="36" width="3" height="6" stroke="white" stroke-width="2"/>
</g>
<g filter="url(#filter1_f_108_33)">
<rect x="6" y="41" width="1" height="4" transform="rotate(-90 6 41)" fill="white"/>
<rect x="5" y="42" width="3" height="6" transform="rotate(-90 5 42)" stroke="white" stroke-width="2"/>
</g>
<rect x="6" y="37" width="1" height="4" fill="white"/>
<rect x="6" y="41" width="1" height="4" transform="rotate(-90 6 41)" fill="white"/>
<g filter="url(#filter2_f_108_33)">
<rect x="186" y="10" width="1" height="4" transform="rotate(-180 186 10)" fill="white"/>
<rect x="187" y="11" width="3" height="6" transform="rotate(-180 187 11)" stroke="white" stroke-width="2"/>
</g>
<g filter="url(#filter3_f_108_33)">
<rect x="186" y="6" width="1" height="4" transform="rotate(90 186 6)" fill="white"/>
<rect x="187" y="5" width="3" height="6" transform="rotate(90 187 5)" stroke="white" stroke-width="2"/>
</g>
<rect x="186" y="10" width="1" height="4" transform="rotate(-180 186 10)" fill="white"/>
<rect x="186" y="6" width="1" height="4" transform="rotate(90 186 6)" fill="white"/>
<defs>
<filter id="filter0_f_108_33" x="0" y="31" width="13" height="16" filterUnits="userSpaceOnUse" color-interpolation-filters="sRGB">
<feFlood flood-opacity="0" result="BackgroundImageFix"/>
<feBlend mode="normal" in="SourceGraphic" in2="BackgroundImageFix" result="shape"/>
<feGaussianBlur stdDeviation="2" result="effect1_foregroundBlur_108_33"/>
</filter>
<filter id="filter1_f_108_33" x="0" y="34" width="16" height="13" filterUnits="userSpaceOnUse" color-interpolation-filters="sRGB">
<feFlood flood-opacity="0" result="BackgroundImageFix"/>
<feBlend mode="normal" in="SourceGraphic" in2="BackgroundImageFix" result="shape"/>
<feGaussianBlur stdDeviation="2" result="effect1_foregroundBlur_108_33"/>
</filter>
<filter id="filter2_f_108_33" x="179" y="0" width="13" height="16" filterUnits="userSpaceOnUse" color-interpolation-filters="sRGB">
<feFlood flood-opacity="0" result="BackgroundImageFix"/>
<feBlend mode="normal" in="SourceGraphic" in2="BackgroundImageFix" result="shape"/>
<feGaussianBlur stdDeviation="2" result="effect1_foregroundBlur_108_33"/>
</filter>
<filter id="filter3_f_108_33" x="176" y="0" width="16" height="13" filterUnits="userSpaceOnUse" color-interpolation-filters="sRGB">
<feFlood flood-opacity="0" result="BackgroundImageFix"/>
<feBlend mode="normal" in="SourceGraphic" in2="BackgroundImageFix" result="shape"/>
<feGaussianBlur stdDeviation="2" result="effect1_foregroundBlur_108_33"/>
</filter>
<linearGradient id="paint0_linear_108_33" x1="186" y1="7" x2="364.5" y2="7" gradientUnits="userSpaceOnUse">
<stop stop-color="#0029FF"/>
<stop offset="1" stop-color="#001929" stop-opacity="0.7"/>
</linearGradient>
<linearGradient id="paint1_linear_108_33" x1="6" y1="41" x2="39.7167" y2="41" gradientUnits="userSpaceOnUse">
<stop stop-color="#0029FF"/>
<stop offset="1" stop-color="#001929" stop-opacity="0.7"/>
</linearGradient>
<linearGradient id="paint2_linear_108_33" x1="186" y1="6" x2="219.717" y2="6" gradientUnits="userSpaceOnUse">
<stop stop-color="#0029FF"/>
<stop offset="1" stop-color="#001929" stop-opacity="0.7"/>
</linearGradient>
<linearGradient id="paint3_linear_108_33" x1="6" y1="40" x2="184.5" y2="40" gradientUnits="userSpaceOnUse">
<stop stop-color="#0029FF"/>
<stop offset="1" stop-color="#001929" stop-opacity="0.7"/>
</linearGradient>
</defs>
</svg>
